<svg version="1.0" xmlns="http://www.w3.org/2000/svg" width="682.667" height="682.667" viewBox="0 0 512 512"><path d="M59 22.9c-4.8 2.5-6.7 8.1-4.5 13.4 1.7 4.1-1.7 2.3 56 29.7 9.4 4.5 14.1 6.7 42 20 6.1 2.9 14.6 6.9 19 9 4.4 2.1 13.2 6.2 19.5 9.3 30 14.3 41 19.6 47.5 22.6l7.1 3.2 15.9-7.7c8.8-4.2 18.5-8.8 21.5-10.1 3-1.4 13.8-6.6 23.9-11.4 10-4.9 18.4-8.9 18.6-8.9.1 0 7.4-3.4 16.1-7.6 32-15.4 39-18.7 45.9-21.9 3.9-1.8 15-7.1 24.9-11.9 9.8-4.7 18.2-8.6 18.6-8.6.5 0 2-1.4 3.4-3.1 3.8-4.5 3.6-10.5-.4-14.4-4.4-4.2-8.4-3.8-20.5 2-5.5 2.6-13.1 6.2-17 8-6.5 3.1-12.4 5.9-45.5 21.7-6.9 3.3-15.6 7.5-19.5 9.3-8 3.7-17.4 8.2-66.9 31.9-8.7 4.2-16.8 7.9-18 8.2-1.4.3-7-1.8-16.1-6.2-7.7-3.6-17.1-8.1-21-9.9-3.8-1.8-14.2-6.8-23-11s-18.7-9-22-10.5c-3.3-1.5-13.6-6.4-22.9-10.9-9.2-4.5-16.9-8.1-17.1-8.1-.1 0-8.5-4-18.6-8.9-28-13.4-40.4-19.1-42-19.1-.8 0-3 .8-4.9 1.9z"/><path d="M16.2 55.3c-1.2.7-3 2.4-3.9 3.7-1.6 2.2-1.7 14.7-1.7 170 0 136.4.3 168.2 1.3 170.8 1.4 3.4-.5 2.4 38 20.9 9.5 4.5 17.4 8.3 17.6 8.3.1 0 7.8 3.6 17.1 8.1 20.2 9.7 34.9 16.7 65.4 31.2 5.2 2.5 15.8 7.5 23.5 11.2 7.7 3.7 17.2 8.2 21 10 3.9 1.8 14.2 6.8 23 11 21.8 10.5 24.2 11.5 28 11.5 2 0 8.4-2.4 16.2-6.1 20.9-10 30.1-14.4 42.8-20.4 6.6-3.2 16.1-7.7 21-10 9.2-4.4 21-9.9 42-20 6.6-3.2 16.1-7.7 21-10 13.1-6.2 30.5-14.5 42.5-20.3 5.8-2.7 17.2-8.2 25.4-12.1 8.1-3.9 15.1-7.1 15.5-7.1.4 0 2.2-1.3 4.1-2.9l3.5-2.9.3-167.8c.2-111.5-.1-169.1-.7-171.4-1.4-4.6-5.9-7.4-11-6.7-2 .3-11.9 4.5-22.1 9.5-10.2 4.9-21 10.1-24 11.5-3 1.3-11.3 5.3-18.5 8.7-7.1 3.4-16.6 7.9-21 10-4.4 2.1-13.8 6.6-21 10-13.8 6.6-28.3 13.6-43 20.5-4.9 2.3-14.4 6.8-21 10-12.2 5.8-21.4 10.2-40.8 19.4-6 2.8-11.1 5.1-11.5 5.1-.6 0-.4.1-26.6-12.4-9.8-4.7-18-8.6-18.2-8.6-.1 0-9.6-4.5-20.9-10-11.4-5.5-20.9-10-21-10-.2 0-7.9-3.7-17.1-8.1-9.3-4.5-20.9-10-25.9-12.4-4.9-2.3-13.5-6.4-19-9C91 85.9 80.9 81.1 74 77.8c-6.9-3.3-16.1-7.7-20.5-9.8-4.4-2.1-12.8-6-18.7-8.9-11.1-5.2-14.6-6-18.6-3.8zm24.4 30.1c6.4 3.2 39.7 19.1 60.9 29.1 11.1 5.3 26 12.3 43 20.5 7.2 3.4 21.6 10.3 32 15.2 10.5 5 24.6 11.7 31.5 15 6.9 3.3 15.4 7.4 19 9 3.6 1.6 6.7 3.2 7 3.5.3.2.5 69.5.6 153.8 0 138.8-.1 153.2-1.5 152.6-4.5-2-12.1-5.6-25.6-12.1-8.2-4-18.1-8.7-22-10.5-3.8-1.8-12.8-6.1-20-9.5-7.1-3.4-16.1-7.7-20-9.5-3.8-1.8-13.1-6.2-20.5-9.7-16.4-7.9-30.5-14.7-42.5-20.3-4.9-2.4-15.7-7.5-24-11.5-8.2-3.9-17.6-8.3-20.8-9.8l-5.7-2.6V235.3c0-85.7.4-153.3.9-153.3.4 0 3.9 1.5 7.7 3.4zm418 149.3c-.1 84.1-.5 153.4-.9 154.1-.5.6-1.2 1.2-1.7 1.2-.4 0-7.7 3.3-16.2 7.4-8.4 4-19.1 9.1-23.8 11.4-4.7 2.2-14.3 6.8-21.5 10.2-7.1 3.4-16.6 7.9-21 10-4.4 2.1-13.8 6.6-21 10-7.1 3.4-16.8 8-21.5 10.2-7.6 3.6-21.1 10-62.5 29.7l-12 5.8-.3-153.1c-.1-84.1.1-153.3.5-153.7.5-.4 10.9-5.6 23.3-11.4 12.4-5.9 26.6-12.7 31.5-15 5-2.4 14.9-7.1 22-10.5 7.2-3.4 17.1-8.1 22-10.5 5-2.3 14.4-6.8 21-10s16.1-7.7 21-10c5-2.3 13.3-6.3 18.5-8.8C448.1 86.5 457.6 82 458.1 82c.3 0 .5 68.7.5 152.7z"/></svg>